<svg id="Ebene_1" data-name="Ebene 1" xmlns="http://www.w3.org/2000/svg" viewBox="0 0 32 32"><defs><style>.cls-1{fill:#005293;}.cls-2{fill:none;}</style></defs><path class="cls-1" d="M4,13a1,1,0,1,0-1-1A1,1,0,0,0,4,13Zm1,2a1,1,0,1,0,1,1A1,1,0,0,0,5,15Zm3,0a1,1,0,1,0,1,1A1,1,0,0,0,8,15Zm3,0a1,1,0,1,0,1,1A1,1,0,0,0,11,15Zm3,0a1,1,0,1,0,1,1A1,1,0,0,0,14,15Zm3,0a1,1,0,1,0,1,1A1,1,0,0,0,17,15Zm2,1a1,1,0,1,0,1-1A1,1,0,0,0,19,16Zm4,1a1,1,0,1,0-1-1A1,1,0,0,0,23,17ZM4,19a1,1,0,1,0,1,1A1,1,0,0,0,4,19Zm3,0a1,1,0,1,0,1,1A1,1,0,0,0,7,19Zm3,0a1,1,0,1,0,1,1A1,1,0,0,0,10,19Zm3,0a1,1,0,1,0,1,1A1,1,0,0,0,13,19Zm3,0a1,1,0,1,0,1,1A1,1,0,0,0,16,19Zm3,0a1,1,0,1,0,1,1A1,1,0,0,0,19,19Zm3,0a1,1,0,1,0,1,1A1,1,0,0,0,22,19Zm3,3a1,1,0,1,0-1-1A1,1,0,0,0,25,22Zm1,1a1,1,0,1,0,1,1A1,1,0,0,0,26,23Zm-2,2a1,1,0,1,0,1,1A1,1,0,0,0,24,25Zm-3-1a1,1,0,1,0,1,1A1,1,0,0,0,21,24Zm5-9a1,1,0,1,0,1,1A1,1,0,0,0,26,15Zm2-2a1,1,0,1,0,1,1A1,1,0,0,0,28,13Zm-2,0a1,1,0,1,0-1-1A1,1,0,0,0,26,13ZM7,13a1,1,0,1,0-1-1A1,1,0,0,0,7,13Zm3,0a1,1,0,1,0-1-1A1,1,0,0,0,10,13Zm3,0a1,1,0,1,0-1-1A1,1,0,0,0,13,13Zm2-1a1,1,0,1,0,1-1A1,1,0,0,0,15,12Zm4,1a1,1,0,1,0-1-1A1,1,0,0,0,19,13Zm1-3a1,1,0,1,0,1-1A1,1,0,0,0,20,10Zm0-2a1,1,0,1,0-1-1A1,1,0,0,0,20,8ZM17,7a1,1,0,1,0-1-1A1,1,0,0,0,17,7ZM15,9a1,1,0,1,0-1-1A1,1,0,0,0,15,9Z"/><rect class="cls-2" width="32" height="32"/></svg>