<svg id="Ebene_1" data-name="Ebene 1" xmlns="http://www.w3.org/2000/svg" viewBox="0 0 32 32"><defs><style>.cls-1{fill:#005293;}.cls-2{fill:none;}</style></defs><path class="cls-1" d="M26,6a1,1,0,0,0-1,1V8.41l-8-4V3a1,1,0,0,0-2,0V4.41l-8,4V7A1,1,0,0,0,5,7V21A4.51,4.51,0,0,0,7.19,24.9l7,4.19A3.45,3.45,0,0,0,16,29.6a3.58,3.58,0,0,0,1.83-.51l7-4.19A4.55,4.55,0,0,0,27,21V7A1,1,0,0,0,26,6ZM16,12a1,1,0,0,0-1,1v1.23L8.08,10.11l7.92-4,7.92,4L17,14.26V13A1,1,0,0,0,16,12ZM8.22,23.2A2.53,2.53,0,0,1,7,21V11.8l8,4.8V27a1.28,1.28,0,0,0,.05.27Zm15.55,0L17,27.3A1.22,1.22,0,0,0,17,27V16.6l8-4.8V21A2.54,2.54,0,0,1,23.77,23.2Z"/><rect class="cls-2" width="32" height="32"/></svg>