<svg id="Ebene_1" data-name="Ebene 1" xmlns="http://www.w3.org/2000/svg" viewBox="0 0 32 32"><defs><style>.cls-1{fill:#005293;}.cls-2{fill:none;}</style></defs><circle class="cls-1" cx="15" cy="16" r="1"/><circle class="cls-1" cx="17" cy="13" r="1"/><circle class="cls-1" cx="19.02" cy="16.01" r="1"/><circle class="cls-1" cx="17" cy="19" r="1"/><circle class="cls-1" cx="21" cy="19" r="1"/><circle class="cls-1" cx="21" cy="13" r="1"/><circle class="cls-1" cx="20" cy="10" r="1"/><circle class="cls-1" cx="24" cy="8" r="1"/><circle class="cls-1" cx="24" cy="12" r="1"/><circle class="cls-1" cx="24" cy="16" r="1"/><circle class="cls-1" cx="24" cy="20" r="1"/><circle class="cls-1" cx="24" cy="24" r="1"/><circle class="cls-1" cx="20" cy="22" r="1"/><path class="cls-1" d="M11,14H9.41a1,1,0,0,1-.7-.29L7.29,12.29a1,1,0,0,0-.7-.29H2.73a.71.71,0,0,0-.73.69H2v7.62a.71.71,0,0,0,.73.69H6.59a1,1,0,0,0,.7-.29l1.42-1.42a1,1,0,0,1,.7-.29H11a1,1,0,0,0,1-1V15A1,1,0,0,0,11,14Z"/><rect class="cls-1" x="28" y="6" width="2" height="20"/><rect class="cls-2" width="32" height="32"/></svg>