<svg id="Ebene_1" data-name="Ebene 1" xmlns="http://www.w3.org/2000/svg" viewBox="0 0 32 32"><defs><style>.cls-1{fill:#005293;}.cls-2{fill:none;}</style></defs><circle class="cls-1" cx="8" cy="15" r="2"/><circle class="cls-1" cx="12" cy="9" r="2"/><circle class="cls-1" cx="20" cy="9" r="2"/><circle class="cls-1" cx="22" cy="22" r="2"/><circle class="cls-1" cx="24" cy="15" r="2"/><path class="cls-1" d="M16,2A14,14,0,0,0,2,16c0,4,2.43,5,5,5,1.5,0,2.75-.25,3.62-.25S12,21,12,22c0,4-1,8,4,8A14,14,0,0,0,16,2Zm.24,26a2.48,2.48,0,0,1-1.66-.39c-.5-.52-.44-2.26-.38-3.8V22a3.09,3.09,0,0,0-2.89-3.26,2.66,2.66,0,0,0-.49,0c-.52,0-1,.05-1.54.11a20,20,0,0,1-2,.14C4.65,19,4,18,4.29,14.85A11.52,11.52,0,0,1,11.3,5a12,12,0,1,1,4.94,23Z"/><rect class="cls-2" width="32" height="32"/></svg>