<svg id="Ebene_1" data-name="Ebene 1" xmlns="http://www.w3.org/2000/svg" viewBox="0 0 32 32"><defs><style>.cls-1{fill:#005293;}.cls-2{fill:none;}</style></defs><path class="cls-1" d="M3,9H19.12a4,4,0,0,0,7.72,0H29a1,1,0,1,0,0-2H26.84a4,4,0,0,0-7.72,0H3A1,1,0,0,0,3,9ZM23,6a2,2,0,1,1-2,2A2,2,0,0,1,23,6Z"/><path class="cls-1" d="M29,17a1,1,0,1,0,0-2H12.84a4,4,0,0,0-7.72,0H3a1,1,0,0,0,0,2H5.12a4,4,0,0,0,7.72,0ZM9,18a2,2,0,1,1,2-2A2,2,0,0,1,9,18Z"/><path class="cls-1" d="M29.85,23.63a9,9,0,0,0-16.7,0L13,24l.15.38A9,9,0,0,0,25,29.31a9.12,9.12,0,0,0,4.88-4.92L30,24ZM21.5,28a6.93,6.93,0,0,1-6.35-4,7,7,0,0,1,9.47-3.27A7.15,7.15,0,0,1,27.85,24,6.93,6.93,0,0,1,21.5,28Z"/><path class="cls-1" d="M21.5,20.16A3.84,3.84,0,1,0,25.36,24a3.81,3.81,0,0,0-3.86-3.84Zm0,5.68A1.84,1.84,0,1,1,23.38,24a1.86,1.86,0,0,1-1.88,1.84Z"/><path class="cls-1" d="M11,23H3a1,1,0,0,0,0,2h8Z"/><rect class="cls-2" width="32" height="32"/></svg>