<svg id="Ebene_1" data-name="Ebene 1" xmlns="http://www.w3.org/2000/svg" viewBox="0 0 32 32"><defs><style>.cls-1{fill:#005293;}.cls-2{fill:none;}</style></defs><path class="cls-1" d="M13,30a.84.84,0,0,1-.38-.08A1,1,0,0,1,12,28.84L13.82,18H7a1,1,0,0,1-.82-.42,1,1,0,0,1-.12-.92l5-14A1,1,0,0,1,12,2h8a1,1,0,0,1,.81.42,1,1,0,0,1,.14.9L18.39,11H25a1,1,0,0,1,.89.54,1,1,0,0,1-.07,1l-12,17A1,1,0,0,1,13,30ZM8.42,16H15a1,1,0,0,1,1,1,1,1,0,0,1,0,.17l-1.28,7.69L23.07,13H17a1,1,0,0,1-.81-.42,1,1,0,0,1-.14-.9L18.61,4h-5.9Z"/><rect class="cls-2" width="32" height="32"/></svg>