<svg id="Ebene_1" data-name="Ebene 1" xmlns="http://www.w3.org/2000/svg" viewBox="0 0 32 32"><defs><style>.cls-1{fill:#005293;}.cls-2{fill:none;}</style></defs><path class="cls-1" d="M27,12l1.56-1a1,1,0,0,0-.07-1.66l-9-5a1,1,0,0,0-1,0L16,5.87,13.55,4.24a1,1,0,0,0-1,0l-9,5a1,1,0,0,0-.41,1.35,1,1,0,0,0,.41.41l1.71.86L2.55,13.18a1,1,0,0,0-.41,1.35,1,1,0,0,0,.41.41l3.52,2a.83.83,0,0,0-.07.13V22.2a.67.67,0,0,0,0,.2.89.89,0,0,0,.08.17.91.91,0,0,0,.11.16l.16.13.09.08,9,5,.15.06h.09a1.06,1.06,0,0,0,.5,0h.09l.15-.06,9-5a1,1,0,0,0,.58-.87V16.9l3.52-2a1,1,0,0,0,.41-1.35,1,1,0,0,0-.41-.41ZM19.07,6.41l7,3.91L25,11.07,18,7.16ZM15,15.54l-5.94-3.3L15,8.94Zm2-6.6,5.94,3.3L17,15.54ZM13,6.41l1.13.75L7.47,10.85l-1.31-.61Zm-6,7,6.86,3.83L12,18.11,5.16,14.29Zm4.51,6.74a1,1,0,0,0,.94,0L15,18.86v6.68L8,21.65V18.16ZM24,21.65l-7,3.89V18.86l2.55,1.27a.88.88,0,0,0,.45.11,1,1,0,0,0,.49-.13L24,18.16Zm-4-3.54-1.86-.87L25,13.37l1.84.92Z"/><rect class="cls-2" width="32" height="32"/></svg>