<svg id="Ebene_1" data-name="Ebene 1" xmlns="http://www.w3.org/2000/svg" viewBox="0 0 32 32"><defs><style>.cls-1{fill:#005293;}.cls-2{fill:none;}</style></defs><path class="cls-1" d="M24,13s-5,7-5,10a5,5,0,0,0,10,0C29,20,24,13,24,13Zm0,13a3,3,0,0,1-3-3c0-1.1,1.37-3.8,3-6.4,1.63,2.6,3,5.3,3,6.4A3,3,0,0,1,24,26Z"/><path class="cls-1" d="M21,12c0-3-5-10-5-10s-5,7-5,10a5,5,0,0,0,10,0Zm-5,3a3,3,0,0,1-3-3c0-1.1,1.37-3.8,3-6.4,1.63,2.6,3,5.3,3,6.4A3,3,0,0,1,16,15Z"/><path class="cls-1" d="M4,24a5,5,0,0,0,10,0c0-3-5-10-5-10S4,21,4,24Zm5,3a3,3,0,0,1-3-3c0-1.1,1.37-3.8,3-6.4,1.63,2.6,3,5.3,3,6.4A3,3,0,0,1,9,27Z"/><rect class="cls-2" width="32" height="32"/></svg>