<svg id="Ebene_1" data-name="Ebene 1" xmlns="http://www.w3.org/2000/svg" viewBox="0 0 32 32"><defs><style>.cls-1{fill:#005293;}.cls-2{fill:none;}</style></defs><path class="cls-1" d="M18.94,15.72,23,11h3l3-5L26,3,21,6V9l-4.77,4.11-2.54-2.44a4.57,4.57,0,0,0-.45-4.18A5.09,5.09,0,0,0,9.55,4a5,5,0,0,0-2,.2A.7.7,0,0,0,7.2,5.39L9.59,7.77a.47.47,0,0,1,0,.64L8.41,9.59a.47.47,0,0,1-.64,0L5.39,7.2a.71.71,0,0,0-1,0,.66.66,0,0,0-.17.29,5,5,0,0,0-.2,2,5.06,5.06,0,0,0,2.4,3.68,4.6,4.6,0,0,0,4.22.51L12.87,16,5.1,22.7A3,3,0,0,0,7,28a3,3,0,0,0,2.2-1l6.72-7.81,7.78,8.06a2.54,2.54,0,0,0,2.4.68,2.51,2.51,0,0,0,1.8-3.06,2.56,2.56,0,0,0-.65-1.14Z"/><rect class="cls-2" width="32" height="32"/></svg>