<svg id="Ebene_1" data-name="Ebene 1" xmlns="http://www.w3.org/2000/svg" viewBox="0 0 32 32"><defs><style>.cls-1{fill:#005293;}.cls-2{fill:none;}</style></defs><circle class="cls-1" cx="20" cy="16" r="1"/><circle class="cls-1" cx="22" cy="13" r="1"/><circle class="cls-1" cx="24" cy="16" r="1"/><circle class="cls-1" cx="22" cy="19" r="1"/><circle class="cls-1" cx="26" cy="19" r="1"/><circle class="cls-1" cx="26" cy="13" r="1"/><circle class="cls-1" cx="25" cy="10" r="1"/><circle class="cls-1" cx="29" cy="8" r="1"/><circle class="cls-1" cx="29" cy="12" r="1"/><circle class="cls-1" cx="29" cy="16" r="1"/><circle class="cls-1" cx="29" cy="20" r="1"/><circle class="cls-1" cx="29" cy="24" r="1"/><circle class="cls-1" cx="25" cy="22" r="1"/><path class="cls-1" d="M16,13H12.53a1,1,0,0,1-.82-.44l-1.42-2.12A1,1,0,0,0,9.47,10H3a1,1,0,0,0-1,1V22a1,1,0,0,0,1,1H9.47a1,1,0,0,0,.82-.44l1.42-2.12a1,1,0,0,1,.82-.44H16a1,1,0,0,0,1-1V14A1,1,0,0,0,16,13Z"/><rect class="cls-2" width="32" height="32"/></svg>