<svg id="Ebene_1" data-name="Ebene 1" xmlns="http://www.w3.org/2000/svg" viewBox="0 0 32 32"><defs><style>.cls-1{fill:#005293;}.cls-2{fill:none;}</style></defs><path class="cls-1" d="M28,11a.21.21,0,0,0,0-.11.61.61,0,0,0,0-.19v-.06a.75.75,0,0,0-.07-.12l-.11-.16-.16-.13-.09-.08L19,5.41V3a1,1,0,0,0-1-1H14a1,1,0,0,0-1,1V5.41L4.51,10.13l-.09.08-.16.13a.91.91,0,0,0-.11.16l-.07.12v.06a.61.61,0,0,0,0,.19A.57.57,0,0,0,4,11V27a1.17,1.17,0,0,0,.08.36A1.11,1.11,0,0,0,5,28H27.07a1.08,1.08,0,0,0,.31-.07,1,1,0,0,0,.54-.54A1,1,0,0,0,28,27ZM16,21c-4.24,0-7.95,2.27-10,3.84V13.16C8.05,14.73,11.76,17,16,17s8-2.27,10-3.84V24.84C24,23.27,20.24,21,16,21Zm8.19,5H7.81A14.85,14.85,0,0,1,16,23,14.85,14.85,0,0,1,24.19,26ZM7.81,12H24.19A14.85,14.85,0,0,1,16,15,14.85,14.85,0,0,1,7.81,12Zm6.68-5.13A1,1,0,0,0,15,6V4h2V6a1,1,0,0,0,.51.87L23.14,10H8.86Z"/><rect class="cls-2" width="32" height="32"/></svg>