<svg id="Ebene_1" data-name="Ebene 1" xmlns="http://www.w3.org/2000/svg" viewBox="0 0 32 32"><defs><style>.cls-1{fill:#005293;}.cls-2{fill:none;}</style></defs><path class="cls-1" d="M18.71,9.24a1,1,0,0,0-1.3.56h0l-1.63,4.06a2.17,2.17,0,1,0,2.38,1.94,2.24,2.24,0,0,0-.52-1.2l1.62-4.06A1,1,0,0,0,18.71,9.24Z"/><path class="cls-1" d="M16,2A14,14,0,1,0,30,16,14,14,0,0,0,16,2Zm9.4,14a9.39,9.39,0,0,1-3.5,7.31l1.84,1.84a11.94,11.94,0,0,1-15.48,0l1.85-1.84L8.69,21.89,6.85,23.74A11.86,11.86,0,0,1,4.05,17H6.67V15H4.05a11.86,11.86,0,0,1,2.8-6.74l1.84,1.85,1.42-1.42L8.26,6.85A11.86,11.86,0,0,1,15,4.05V6.67h2V4.05a11.86,11.86,0,0,1,6.74,2.8L21.89,8.69l1.42,1.42,1.84-1.85A11.89,11.89,0,0,1,28,15H25.34C25.34,15.33,25.4,15.66,25.4,16Z"/><rect class="cls-2" width="32" height="32"/></svg>