<svg id="Ebene_1" data-name="Ebene 1" xmlns="http://www.w3.org/2000/svg" viewBox="0 0 32 32"><defs><style>.cls-1{fill:#005293;}.cls-2{fill:none;}</style></defs><path class="cls-1" d="M27,4H5A1,1,0,0,0,4,5V27a1,1,0,0,0,1,1H27a1,1,0,0,0,1-1V5A1,1,0,0,0,27,4ZM26,26H6V6H26Z"/><rect class="cls-1" x="8" y="10" width="2" height="2"/><rect class="cls-1" x="8" y="15" width="2" height="2"/><path class="cls-1" d="M13,12H23a1,1,0,0,0,0-2H13a1,1,0,0,0,0,2Z"/><path class="cls-1" d="M13,17H23a1,1,0,0,0,0-2H13a1,1,0,0,0,0,2Z"/><rect class="cls-1" x="8" y="20" width="2" height="2"/><path class="cls-1" d="M13,22H23a1,1,0,0,0,0-2H13a1,1,0,0,0,0,2Z"/><rect class="cls-2" width="32" height="32"/></svg>