<svg id="Ebene_1" data-name="Ebene 1" xmlns="http://www.w3.org/2000/svg" viewBox="0 0 32 32"><defs><style>.cls-1{fill:#005293;}.cls-2{fill:none;}</style></defs><path class="cls-1" d="M23,10H13a1,1,0,0,0,0,2H23a1,1,0,0,0,0-2Z"/><path class="cls-1" d="M13,20a1,1,0,0,0,0,2h3l2-2Z"/><path class="cls-1" d="M13,17h8l2-2H13a1,1,0,0,0,0,2Z"/><rect class="cls-1" x="8" y="15" width="2" height="2"/><rect class="cls-1" x="8" y="10" width="2" height="2"/><path class="cls-1" d="M12,26H6V6H26v6l2-2V5a1,1,0,0,0-1-1H5A1,1,0,0,0,4,5V27a1,1,0,0,0,1,1h5Z"/><rect class="cls-1" x="8" y="20" width="2" height="2"/><path class="cls-1" d="M14,26.67V30h3.33l9.83-9.83-3.33-3.33Zm15.74-9.08a.87.87,0,0,0,0-1.24h0l-2.08-2.08a.87.87,0,0,0-1.24,0h0l-1.63,1.63,3.33,3.33Z"/><rect class="cls-2" width="32" height="32"/></svg>