<svg id="Ebene_1" data-name="Ebene 1" xmlns="http://www.w3.org/2000/svg" viewBox="0 0 32 32"><defs><style>.cls-1{fill:#005293;}.cls-2{fill:none;}</style></defs><path class="cls-1" d="M24.78,10.38a1,1,0,0,0-1.67,1.11l.11.13L25.92,15H16a1,1,0,0,0,0,2h9.92l-2.7,3.38a1,1,0,1,0,1.56,1.24L29.28,16Z"/><path class="cls-1" d="M7,13H17a1,1,0,0,0,0-2H7a1,1,0,0,0,0,2Z"/><path class="cls-1" d="M17,19H7a1,1,0,0,0,0,2H17a1,1,0,0,0,0-2Z"/><path class="cls-1" d="M13,16a1,1,0,0,0-1-1H4a1,1,0,0,0,0,2h8A1,1,0,0,0,13,16Z"/><rect class="cls-2" width="32" height="32"/></svg>