<svg id="Ebene_1" data-name="Ebene 1" xmlns="http://www.w3.org/2000/svg" viewBox="0 0 32 32"><defs><style>.cls-1{fill:#005293;}.cls-2{fill:none;}</style></defs><path class="cls-1" d="M21.41,3H10.59L3,10.59V21.41L10.59,29H21.41L29,21.41V10.59ZM27,20.59,20.59,27H11.41L5,20.59V11.41L11.41,5h9.18L27,11.41Z"/><path class="cls-1" d="M9.8,16a5.25,5.25,0,0,0-1.16-.38,3,3,0,0,1-1-.36.4.4,0,0,1-.16-.32.39.39,0,0,1,.17-.33,1.29,1.29,0,0,1,.74-.2,1.09,1.09,0,0,1,.68.18.88.88,0,0,1,.29.59h1.08A1.61,1.61,0,0,0,9.91,14a2.26,2.26,0,0,0-1.51-.44,2.65,2.65,0,0,0-1,.19,1.48,1.48,0,0,0-.67.54A1.23,1.23,0,0,0,7,16a2.9,2.9,0,0,0,1.22.53c.45.11.73.19.86.23a1,1,0,0,1,.39.23.52.52,0,0,1,.11.32.63.63,0,0,1-.27.52,1.14,1.14,0,0,1-.78.22,1.11,1.11,0,0,1-.78-.25A1.26,1.26,0,0,1,7.37,17l-1,.1A2,2,0,0,0,7,18.49a2.33,2.33,0,0,0,1.5.51,3,3,0,0,0,1.16-.2,1.49,1.49,0,0,0,.72-.59,1.71,1.71,0,0,0,0-1.71A1.43,1.43,0,0,0,9.8,16Z"/><polygon class="cls-1" points="11.13 14.48 12.71 14.48 12.71 18.9 13.78 18.9 13.78 14.48 15.36 14.48 15.36 13.57 11.13 13.57 11.13 14.48"/><path class="cls-1" d="M18.28,13.48a2.86,2.86,0,0,0-1.15.21,2.38,2.38,0,0,0-.69.48,2.6,2.6,0,0,0-.49.73,3.21,3.21,0,0,0-.25,1.37,2.78,2.78,0,0,0,.7,2,2.55,2.55,0,0,0,1.89.72,2.53,2.53,0,0,0,1.88-.72,2.78,2.78,0,0,0,.7-2,2.83,2.83,0,0,0-.71-2A2.52,2.52,0,0,0,18.28,13.48Zm1.07,4.13a1.44,1.44,0,0,1-2.05.07l-.07-.07a2,2,0,0,1-.42-1.37,2,2,0,0,1,.41-1.38,1.49,1.49,0,0,1,2.11,0l0,0a2,2,0,0,1,.4,1.37A2.08,2.08,0,0,1,19.35,17.61Z"/><path class="cls-1" d="M22.79,16.89h.7a5.92,5.92,0,0,0,1.11-.07,1.68,1.68,0,0,0,.56-.26,1.33,1.33,0,0,0,.45-.52,1.71,1.71,0,0,0,.18-.83,1.63,1.63,0,0,0-.31-1,1.33,1.33,0,0,0-.76-.53,6.08,6.08,0,0,0-1.28-.08H21.71v5.3h1.08Zm0-2.41h.52a5,5,0,0,1,.77,0,.72.72,0,0,1,.43.24.65.65,0,0,1,.17.48.73.73,0,0,1-.12.41.66.66,0,0,1-.33.26,2.44,2.44,0,0,1-.85.09h-.59Z"/><rect class="cls-2" width="32" height="32"/></svg>