<svg id="Ebene_1" data-name="Ebene 1" xmlns="http://www.w3.org/2000/svg" viewBox="0 0 32 32"><defs><style>.cls-1{fill:#005293;}.cls-2{fill:none;}</style></defs><path class="cls-1" d="M16,8q.62,0,1.23.06a12,12,0,0,1,10.56,9.7A11.83,11.83,0,0,1,27.3,24H4.7A12,12,0,0,1,12,8.69,11.79,11.79,0,0,1,16,8m0-2A14,14,0,0,0,2,20a13.86,13.86,0,0,0,.82,4.69A2,2,0,0,0,4.7,26H27.3a2,2,0,0,0,1.88-1.3A14,14,0,0,0,16,6Z"/><path class="cls-1" d="M23.76,13.35a1,1,0,0,0-1.41-.11h0l-5.69,4.88A1.84,1.84,0,0,0,16,18a2,2,0,1,0,2,2,1.15,1.15,0,0,0,0-.37l5.69-4.87A1,1,0,0,0,23.76,13.35Z"/><rect class="cls-2" width="32" height="32"/></svg>