<svg id="Ebene_1" data-name="Ebene 1" xmlns="http://www.w3.org/2000/svg" viewBox="0 0 32 32"><defs><style>.cls-1{fill:#005293;}.cls-2{fill:none;}</style></defs><path class="cls-1" d="M19.5,2a10.51,10.51,0,0,0-8.1,17.2l-1.1,1.1-.7-.7-7,7,2.8,2.8,7-7-.7-.7,1.1-1.1A10.35,10.35,0,0,0,19.5,23a10.5,10.5,0,0,0,0-21Zm0,19A8.5,8.5,0,1,1,28,12.5,8.49,8.49,0,0,1,19.5,21ZM22,11a2.21,2.21,0,0,1-2,2,2.21,2.21,0,0,1-2-2V7H16V18h2V14.09a2.65,2.65,0,0,0,4,0V15h2V7H22Z"/><rect class="cls-2" width="32" height="32"/></svg>