<svg id="Ebene_1" data-name="Ebene 1" xmlns="http://www.w3.org/2000/svg" viewBox="0 0 32 32"><defs><style>.cls-1{fill:#fff;}.cls-2{fill:none;}</style></defs><path class="cls-1" d="M27,7.36a1,1,0,1,0-1.54,1.28L26.57,10H5.45L6.58,8.64A1,1,0,0,0,5,7.36L2,11l3,3.64a1,1,0,0,0,.77.36,1,1,0,0,0,.77-1.64h0L5.45,12H8v5H6v8h6V17H10V12h5v5H13v8h6V17H17V12h5v5H20v8h6V17H24V12h2.57l-1.13,1.36a1,1,0,0,0,.13,1.41h0a1,1,0,0,0,.64.23,1,1,0,0,0,.77-.36L30,11ZM10,23H8V19h2Zm7,0H15V19h2Zm7,0H22V19h2Z"/><rect class="cls-2" width="32" height="32"/></svg>