<svg id="Ebene_1" data-name="Ebene 1" xmlns="http://www.w3.org/2000/svg" viewBox="0 0 32 32"><defs><style>.cls-1{fill:#fff;}.cls-2{fill:none;}</style></defs><path class="cls-1" d="M25,28H19a1,1,0,0,1-1-1V18H14v9a1,1,0,0,1-1,1H7a1,1,0,0,1-1-1V15H3a1,1,0,0,1-1-1,1,1,0,0,1,.36-.78l13-11a1,1,0,0,1,1.3,0l13,11a1,1,0,0,1,.13,1.41A1,1,0,0,1,29,15H26V27A1,1,0,0,1,25,28Zm-5-2h4V14a1,1,0,0,1,1-1h1.27L16,4.31,5.73,13H7a1,1,0,0,1,1,1V26h4V17a1,1,0,0,1,1-1h6a1,1,0,0,1,1,1Z"/><rect class="cls-2" width="32" height="32"/></svg>